<svg version="1.1" id="Layer_1" xmlns="http://www.w3.org/2000/svg" xmlns:xlink="http://www.w3.org/1999/xlink" x="0px" y="0px"
	 width="100%" viewBox="0 0 219 168" enable-background="new 0 0 219 168" xml:space="preserve">
<path fill="#020202" opacity="1.000000" stroke="none" 
	d="
M136.000000,169.000000 
	C90.695648,169.000000 45.891289,169.000000 1.043467,169.000000 
	C1.043467,113.065201 1.043467,57.130363 1.043467,1.097761 
	C73.887527,1.097761 146.775238,1.097761 219.831467,1.097761 
	C219.831467,56.999592 219.831467,112.999748 219.831467,169.000000 
	C192.130661,169.000000 164.315323,169.000000 136.000000,169.000000 
M96.341019,134.384689 
	C98.228531,135.261963 100.109222,136.884491 102.004593,136.901825 
	C122.162895,137.086212 142.323608,137.039291 162.483246,136.954910 
	C163.650803,136.950012 165.592316,136.291092 165.801270,135.549728 
	C166.128983,134.387115 165.675446,132.572296 164.869980,131.598465 
	C161.695724,127.760765 158.460754,123.921509 154.818909,120.546120 
	C153.211853,119.056633 150.608795,118.012924 148.405273,117.911613 
	C141.294739,117.584694 134.159729,117.789734 126.960480,117.789734 
	C126.960480,103.795761 126.960480,90.269363 126.960480,76.546867 
	C133.029831,76.546867 138.722916,76.930092 144.327667,76.392479 
	C147.332916,76.104202 150.717865,74.864403 152.999786,72.945839 
	C158.082504,68.672447 162.522522,63.642899 167.334167,59.036072 
	C170.880890,55.640335 179.348236,56.528652 181.876724,60.417858 
	C184.609634,64.621490 189.243179,66.499306 193.928452,65.302002 
	C198.662628,64.092201 201.819519,60.134380 202.020660,55.211815 
	C202.227081,50.159634 199.957001,46.548496 195.445557,44.505093 
	C191.126923,42.549030 185.108154,43.956070 182.612350,48.228748 
	C180.688095,51.522964 178.339600,51.910728 175.225845,51.669174 
	C169.927139,51.258121 165.305481,51.851414 161.474380,56.564507 
	C157.297302,61.703217 152.922775,67.929153 147.234909,70.246773 
	C141.357071,72.641792 133.781464,71.225487 126.979065,70.878479 
	C121.959755,70.622437 120.677666,72.544899 120.892464,77.236046 
	C121.232620,84.664955 120.983124,92.120850 120.983124,99.652023 
	C112.081306,99.652023 103.679611,99.652023 95.198746,99.652023 
	C95.198746,87.319939 95.198746,75.245827 95.198746,62.853123 
	C108.742630,62.853123 122.041336,63.030392 135.327560,62.702240 
	C137.957184,62.637295 141.102676,61.227844 143.035126,59.404755 
	C148.473923,54.273769 153.474533,48.667049 158.481262,43.098080 
	C159.590256,41.864540 160.013153,40.014149 160.751968,38.447788 
	C159.128876,37.901623 157.508636,36.890472 155.882248,36.880482 
	C137.555695,36.767895 119.226791,36.702919 100.902641,36.941929 
	C98.587440,36.972126 95.818512,38.301872 94.083855,39.915428 
	C89.095497,44.555542 84.665215,49.793060 79.715714,54.479042 
	C78.216690,55.898254 75.767471,56.940964 73.706573,57.026535 
	C66.388252,57.330391 59.048874,57.084953 51.719246,57.181778 
	C49.229294,57.214672 47.674770,56.882408 46.340218,54.156937 
	C43.979000,49.334774 38.522892,47.526638 33.560638,48.997475 
	C29.155251,50.303253 26.126726,54.310020 25.983629,59.021923 
	C25.816877,64.512878 28.460468,68.437302 33.427246,70.071976 
	C38.322655,71.683174 43.171192,70.229721 45.972889,65.684692 
	C47.412758,63.348877 48.979355,62.746788 51.524220,62.798939 
	C59.351746,62.959343 67.196167,63.125095 75.007858,62.747570 
	C77.510429,62.626625 80.433617,61.371925 82.293297,59.679058 
	C87.332466,55.091911 91.738693,49.811577 96.752670,45.193455 
	C98.478310,43.604046 101.238449,42.381008 103.559464,42.322720 
	C115.048409,42.034191 126.548546,42.191536 138.044739,42.191669 
	C142.271423,42.191715 146.498108,42.191677 151.785416,42.191677 
	C147.425232,46.811047 144.114548,50.767197 140.301468,54.158466 
	C138.541580,55.723671 135.817108,56.965702 133.500549,57.016705 
	C121.010750,57.291695 108.511703,57.144417 96.015846,57.147987 
	C89.205902,57.149929 89.153954,57.204510 89.147285,64.242165 
	C89.141808,70.025185 89.146164,75.808220 89.146164,81.620613 
	C88.288940,81.791618 87.823189,81.964569 87.357063,81.965591 
	C79.696442,81.982391 72.035774,81.977524 64.400154,81.977524 
	C64.121979,81.413658 63.921158,80.960739 63.682110,80.528984 
	C60.632832,75.021469 55.960762,72.718597 50.511631,74.030319 
	C46.034466,75.108055 42.604458,79.382172 42.313560,84.245895 
	C42.021473,89.129608 45.132339,93.546768 50.037971,95.213882 
	C55.114937,96.939232 59.659645,95.028214 63.203751,89.865959 
	C63.861313,88.908165 65.031731,87.674500 65.991379,87.651535 
	C73.586601,87.469742 81.188095,87.550407 89.148170,87.550407 
	C89.148170,92.204201 89.232040,96.342781 89.122696,100.476250 
	C89.028435,104.039070 90.477379,105.472504 94.151459,105.394997 
	C102.959717,105.209175 111.774559,105.334923 120.983040,105.334923 
	C120.983040,109.747101 121.194702,113.903664 120.922745,118.028343 
	C120.657532,122.050819 122.363945,123.336891 126.169334,123.217674 
	C132.328125,123.024704 138.496506,123.125572 144.660828,123.123810 
	C150.679916,123.122086 153.430069,125.100708 155.873749,131.143250 
	C155.563385,131.234421 155.253189,131.404816 154.942657,131.405396 
	C141.280777,131.430817 127.595215,130.958496 113.965500,131.626907 
	C105.205902,132.056503 98.022125,130.491013 92.530891,123.225357 
	C90.851761,121.003654 88.386223,119.390823 86.386551,117.393326 
	C83.671684,114.681419 80.654785,113.406708 76.640579,113.571655 
	C68.823044,113.892899 60.978603,113.512863 53.154259,113.736549 
	C49.735058,113.834290 47.438961,113.176163 45.430862,109.989471 
	C42.805580,105.823364 37.012005,104.502464 32.588448,106.506950 
	C28.091078,108.544884 25.730629,112.108093 25.974421,117.213081 
	C26.216320,122.278465 29.034258,125.818855 34.058071,127.234482 
	C38.880890,128.593475 43.624043,127.115067 45.994755,122.642952 
	C47.595493,119.623329 49.507042,118.738846 52.635784,119.046883 
	C54.945953,119.274330 57.339016,119.380302 59.622093,119.044189 
	C73.341278,117.024422 85.073471,120.121803 93.673157,131.757477 
	C94.259056,132.550201 95.093292,133.159378 96.341019,134.384689 
M106.516525,152.012863 
	C136.313812,152.012848 166.111084,152.013077 195.908371,152.011948 
	C197.073486,152.011917 198.356400,152.301590 199.370621,151.906876 
	C200.387405,151.511154 201.136093,150.426544 202.002289,149.643875 
	C201.118256,148.669861 200.402863,147.315735 199.303146,146.827850 
	C198.184784,146.331696 196.687729,146.675003 195.356506,146.674866 
	C165.892136,146.671860 136.425949,146.495438 106.964645,146.796631 
	C99.629150,146.871613 93.328590,146.198792 88.584145,139.773132 
	C86.449768,136.882431 83.098999,134.921814 80.692345,132.193253 
	C76.288841,127.200737 71.067986,124.749466 64.414948,126.012161 
	C61.452972,126.574318 57.306259,126.430679 55.831070,128.295410 
	C50.515270,135.014938 43.876305,136.438934 36.040192,135.496307 
	C34.071171,135.259445 31.960958,135.107254 30.079941,135.575790 
	C28.600643,135.944260 27.374233,137.327988 26.035488,138.260742 
	C27.355330,139.177917 28.627829,140.792740 30.003576,140.886093 
	C34.808956,141.212189 39.667786,140.755905 44.472248,141.088669 
	C48.841747,141.391296 52.085983,140.058273 55.012028,136.789078 
	C56.905643,134.673401 59.395031,132.240448 61.961536,131.749908 
	C67.777618,130.638260 73.439255,131.349594 77.522606,136.825027 
	C79.380852,139.316757 82.297333,140.998962 84.290985,143.413940 
	C89.865944,150.167068 96.589165,153.728653 106.516525,152.012863 
M143.499924,28.178074 
	C160.995117,28.178049 178.490326,28.180452 195.985519,28.173174 
	C197.316574,28.172621 198.754608,28.398296 199.942734,27.967165 
	C200.798889,27.656488 201.971588,26.299982 201.840988,25.639818 
	C201.647385,24.661007 200.564835,23.623472 199.596222,23.106375 
	C198.814209,22.688887 197.641281,22.994837 196.641769,22.994789 
	C163.650726,22.993229 130.659409,22.937922 97.669266,23.110392 
	C95.307663,23.122738 92.499390,24.267532 90.682755,25.809416 
	C85.106194,30.542555 79.905090,35.718758 74.569923,40.735363 
	C70.452202,44.607212 61.206150,44.375187 57.035580,40.486534 
	C54.533573,38.153660 51.927505,34.730022 49.000557,34.300194 
	C42.474918,33.341881 35.715038,33.840061 29.059977,34.046661 
	C28.025555,34.078773 27.040562,35.703136 26.032711,36.591187 
	C27.040436,37.494568 27.989676,39.085674 29.066435,39.177242 
	C32.871586,39.500828 36.774418,39.719303 40.540043,39.220871 
	C46.271358,38.462257 50.204601,40.693069 53.941414,44.815258 
	C59.305920,50.733006 71.849442,50.844379 77.752518,45.415600 
	C83.020859,40.570560 88.071938,35.478458 93.504883,30.829613 
	C95.193581,29.384626 97.805183,28.327435 100.013260,28.292479 
	C114.172531,28.068323 128.337082,28.178074 143.499924,28.178074 
M184.826050,127.920799 
	C185.482346,128.026428 186.135620,128.158539 186.795395,128.233566 
	C193.192429,128.961014 197.734406,126.017960 199.226196,120.189537 
	C200.612579,114.772964 197.782181,109.080048 192.740555,107.144577 
	C187.359497,105.078819 181.983444,107.258949 178.688522,112.450951 
	C177.930099,113.646065 176.189697,114.524315 174.731918,114.912354 
	C170.202118,116.118126 167.066818,113.728279 164.822617,110.165482 
	C161.653992,105.135101 157.404572,103.153740 151.439819,103.886078 
	C147.399734,104.382111 143.249451,103.980743 139.191849,103.980743 
	C139.191849,99.148346 139.191849,94.889069 139.191849,90.193222 
	C142.371704,90.193222 145.373276,90.507034 148.259872,90.066940 
	C149.810257,89.830566 151.163239,88.299355 152.605286,87.352409 
	C151.237915,86.503502 149.927917,85.060966 148.491913,84.922195 
	C144.864609,84.571663 141.176086,84.920448 137.520767,84.773361 
	C134.535278,84.653221 133.246201,85.936577 133.266190,88.852188 
	C133.303833,94.343842 133.309464,99.836151 133.268265,105.327736 
	C133.243912,108.575104 134.931412,109.646904 137.977554,109.579788 
	C143.133774,109.466187 148.312546,109.296509 153.443848,109.671013 
	C155.449173,109.817368 157.636993,111.026505 159.239014,112.356895 
	C162.127960,114.755997 164.734024,119.939705 167.288757,119.834755 
	C174.678391,119.531174 179.485748,122.943146 184.826050,127.920799 
z"/>
<path fill="#F2F2F2" opacity="1.000000" stroke="none" 
	d="
M96.076523,134.119308 
	C95.093292,133.159378 94.259056,132.550201 93.673157,131.757477 
	C85.073471,120.121803 73.341278,117.024422 59.622093,119.044189 
	C57.339016,119.380302 54.945953,119.274330 52.635784,119.046883 
	C49.507042,118.738846 47.595493,119.623329 45.994755,122.642952 
	C43.624043,127.115067 38.880890,128.593475 34.058071,127.234482 
	C29.034258,125.818855 26.216320,122.278465 25.974421,117.213081 
	C25.730629,112.108093 28.091078,108.544884 32.588448,106.506950 
	C37.012005,104.502464 42.805580,105.823364 45.430862,109.989471 
	C47.438961,113.176163 49.735058,113.834290 53.154259,113.736549 
	C60.978603,113.512863 68.823044,113.892899 76.640579,113.571655 
	C80.654785,113.406708 83.671684,114.681419 86.386551,117.393326 
	C88.386223,119.390823 90.851761,121.003654 92.530891,123.225357 
	C98.022125,130.491013 105.205902,132.056503 113.965500,131.626907 
	C127.595215,130.958496 141.280777,131.430817 154.942657,131.405396 
	C155.253189,131.404816 155.563385,131.234421 155.873077,131.140961 
	C153.430069,125.100708 150.679916,123.122086 144.660828,123.123810 
	C138.496506,123.125572 132.328125,123.024704 126.169334,123.217674 
	C122.363945,123.336891 120.657532,122.050819 120.922745,118.028343 
	C121.194702,113.903664 120.983040,109.747101 120.983040,105.334923 
	C111.774559,105.334923 102.959717,105.209175 94.151459,105.394997 
	C90.477379,105.472504 89.028435,104.039070 89.122696,100.476250 
	C89.232040,96.342781 89.148170,92.204201 89.148170,87.550407 
	C81.188095,87.550407 73.586601,87.469742 65.991379,87.651535 
	C65.031731,87.674500 63.861313,88.908165 63.203751,89.865959 
	C59.659645,95.028214 55.114937,96.939232 50.037971,95.213882 
	C45.132339,93.546768 42.021473,89.129608 42.313560,84.245895 
	C42.604458,79.382172 46.034466,75.108055 50.511631,74.030319 
	C55.960762,72.718597 60.632832,75.021469 63.682110,80.528984 
	C63.921158,80.960739 64.121979,81.413658 64.400154,81.977524 
	C72.035774,81.977524 79.696442,81.982391 87.357063,81.965591 
	C87.823189,81.964569 88.288940,81.791618 89.146164,81.620613 
	C89.146164,75.808220 89.141808,70.025185 89.147285,64.242165 
	C89.153954,57.204510 89.205902,57.149929 96.015846,57.147987 
	C108.511703,57.144417 121.010750,57.291695 133.500549,57.016705 
	C135.817108,56.965702 138.541580,55.723671 140.301468,54.158466 
	C144.114548,50.767197 147.425232,46.811047 151.785416,42.191677 
	C146.498108,42.191677 142.271423,42.191715 138.044739,42.191669 
	C126.548546,42.191536 115.048409,42.034191 103.559464,42.322720 
	C101.238449,42.381008 98.478310,43.604046 96.752670,45.193455 
	C91.738693,49.811577 87.332466,55.091911 82.293297,59.679058 
	C80.433617,61.371925 77.510429,62.626625 75.007858,62.747570 
	C67.196167,63.125095 59.351746,62.959343 51.524220,62.798939 
	C48.979355,62.746788 47.412758,63.348877 45.972889,65.684692 
	C43.171192,70.229721 38.322655,71.683174 33.427246,70.071976 
	C28.460468,68.437302 25.816877,64.512878 25.983629,59.021923 
	C26.126726,54.310020 29.155251,50.303253 33.560638,48.997475 
	C38.522892,47.526638 43.979000,49.334774 46.340218,54.156937 
	C47.674770,56.882408 49.229294,57.214672 51.719246,57.181778 
	C59.048874,57.084953 66.388252,57.330391 73.706573,57.026535 
	C75.767471,56.940964 78.216690,55.898254 79.715714,54.479042 
	C84.665215,49.793060 89.095497,44.555542 94.083855,39.915428 
	C95.818512,38.301872 98.587440,36.972126 100.902641,36.941929 
	C119.226791,36.702919 137.555695,36.767895 155.882248,36.880482 
	C157.508636,36.890472 159.128876,37.901623 160.751968,38.447784 
	C160.013153,40.014149 159.590256,41.864540 158.481262,43.098080 
	C153.474533,48.667049 148.473923,54.273769 143.035126,59.404755 
	C141.102676,61.227844 137.957184,62.637295 135.327560,62.702240 
	C122.041336,63.030392 108.742630,62.853123 95.198746,62.853123 
	C95.198746,75.245827 95.198746,87.319939 95.198746,99.652023 
	C103.679611,99.652023 112.081306,99.652023 120.983124,99.652023 
	C120.983124,92.120850 121.232620,84.664955 120.892464,77.236046 
	C120.677666,72.544899 121.959755,70.622437 126.979065,70.878479 
	C133.781464,71.225487 141.357071,72.641792 147.234909,70.246773 
	C152.922775,67.929153 157.297302,61.703217 161.474380,56.564507 
	C165.305481,51.851414 169.927139,51.258121 175.225845,51.669174 
	C178.339600,51.910728 180.688095,51.522964 182.612350,48.228748 
	C185.108154,43.956070 191.126923,42.549030 195.445557,44.505093 
	C199.957001,46.548496 202.227081,50.159634 202.020660,55.211815 
	C201.819519,60.134380 198.662628,64.092201 193.928452,65.302002 
	C189.243179,66.499306 184.609634,64.621490 181.876724,60.417858 
	C179.348236,56.528652 170.880890,55.640335 167.334167,59.036072 
	C162.522522,63.642899 158.082504,68.672447 152.999786,72.945839 
	C150.717865,74.864403 147.332916,76.104202 144.327667,76.392479 
	C138.722916,76.930092 133.029831,76.546867 126.960480,76.546867 
	C126.960480,90.269363 126.960480,103.795761 126.960480,117.789734 
	C134.159729,117.789734 141.294739,117.584694 148.405273,117.911613 
	C150.608795,118.012924 153.211853,119.056633 154.818909,120.546120 
	C158.460754,123.921509 161.695724,127.760765 164.869980,131.598465 
	C165.675446,132.572296 166.128983,134.387115 165.801270,135.549728 
	C165.592316,136.291092 163.650803,136.950012 162.483246,136.954910 
	C142.323608,137.039291 122.162895,137.086212 102.004593,136.901825 
	C100.109222,136.884491 98.228531,135.261963 96.076523,134.119308 
z"/>
<path fill="#F4F4F4" opacity="1.000000" stroke="none" 
	d="
M106.020714,152.012848 
	C96.589165,153.728653 89.865944,150.167068 84.290985,143.413940 
	C82.297333,140.998962 79.380852,139.316757 77.522606,136.825027 
	C73.439255,131.349594 67.777618,130.638260 61.961536,131.749908 
	C59.395031,132.240448 56.905643,134.673401 55.012028,136.789078 
	C52.085983,140.058273 48.841747,141.391296 44.472248,141.088669 
	C39.667786,140.755905 34.808956,141.212189 30.003576,140.886093 
	C28.627829,140.792740 27.355330,139.177917 26.035488,138.260742 
	C27.374233,137.327988 28.600643,135.944260 30.079941,135.575790 
	C31.960958,135.107254 34.071171,135.259445 36.040192,135.496307 
	C43.876305,136.438934 50.515270,135.014938 55.831070,128.295410 
	C57.306259,126.430679 61.452972,126.574318 64.414948,126.012161 
	C71.067986,124.749466 76.288841,127.200737 80.692345,132.193253 
	C83.098999,134.921814 86.449768,136.882431 88.584145,139.773132 
	C93.328590,146.198792 99.629150,146.871613 106.964645,146.796631 
	C136.425949,146.495438 165.892136,146.671860 195.356506,146.674866 
	C196.687729,146.675003 198.184784,146.331696 199.303146,146.827850 
	C200.402863,147.315735 201.118256,148.669861 202.002289,149.643875 
	C201.136093,150.426544 200.387405,151.511154 199.370621,151.906876 
	C198.356400,152.301590 197.073486,152.011917 195.908371,152.011948 
	C166.111084,152.013077 136.313812,152.012848 106.020714,152.012848 
z"/>
<path fill="#F8F8F8" opacity="1.000000" stroke="none" 
	d="
M142.999908,28.178074 
	C128.337082,28.178074 114.172531,28.068323 100.013260,28.292479 
	C97.805183,28.327435 95.193581,29.384626 93.504883,30.829613 
	C88.071938,35.478458 83.020859,40.570560 77.752518,45.415600 
	C71.849442,50.844379 59.305920,50.733006 53.941414,44.815258 
	C50.204601,40.693069 46.271358,38.462257 40.540043,39.220871 
	C36.774418,39.719303 32.871586,39.500828 29.066435,39.177242 
	C27.989676,39.085674 27.040436,37.494568 26.032711,36.591187 
	C27.040562,35.703136 28.025555,34.078773 29.059977,34.046661 
	C35.715038,33.840061 42.474918,33.341881 49.000557,34.300194 
	C51.927505,34.730022 54.533573,38.153660 57.035580,40.486534 
	C61.206150,44.375187 70.452202,44.607212 74.569923,40.735363 
	C79.905090,35.718758 85.106194,30.542555 90.682755,25.809416 
	C92.499390,24.267532 95.307663,23.122738 97.669266,23.110392 
	C130.659409,22.937922 163.650726,22.993229 196.641769,22.994789 
	C197.641281,22.994837 198.814209,22.688887 199.596222,23.106375 
	C200.564835,23.623472 201.647385,24.661007 201.840988,25.639818 
	C201.971588,26.299982 200.798889,27.656488 199.942734,27.967165 
	C198.754608,28.398296 197.316574,28.172621 195.985519,28.173174 
	C178.490326,28.180452 160.995117,28.178049 142.999908,28.178074 
z"/>
<path fill="#F1F1F1" opacity="1.000000" stroke="none" 
	d="
M184.487122,127.745941 
	C179.485748,122.943146 174.678391,119.531174 167.288757,119.834755 
	C164.734024,119.939705 162.127960,114.755997 159.239014,112.356895 
	C157.636993,111.026505 155.449173,109.817368 153.443848,109.671013 
	C148.312546,109.296509 143.133774,109.466187 137.977554,109.579788 
	C134.931412,109.646904 133.243912,108.575104 133.268265,105.327736 
	C133.309464,99.836151 133.303833,94.343842 133.266190,88.852188 
	C133.246201,85.936577 134.535278,84.653221 137.520767,84.773361 
	C141.176086,84.920448 144.864609,84.571663 148.491913,84.922195 
	C149.927917,85.060966 151.237915,86.503502 152.605286,87.352417 
	C151.163239,88.299355 149.810257,89.830566 148.259872,90.066940 
	C145.373276,90.507034 142.371704,90.193222 139.191849,90.193222 
	C139.191849,94.889069 139.191849,99.148346 139.191849,103.980743 
	C143.249451,103.980743 147.399734,104.382111 151.439819,103.886078 
	C157.404572,103.153740 161.653992,105.135101 164.822617,110.165482 
	C167.066818,113.728279 170.202118,116.118126 174.731918,114.912354 
	C176.189697,114.524315 177.930099,113.646065 178.688522,112.450951 
	C181.983444,107.258949 187.359497,105.078819 192.740555,107.144577 
	C197.782181,109.080048 200.612579,114.772964 199.226196,120.189537 
	C197.734406,126.017960 193.192429,128.961014 186.795395,128.233566 
	C186.135620,128.158539 185.482346,128.026428 184.487122,127.745941 
z"/>
</svg>